<?xml version="1.0" standalone="no"?>
<!DOCTYPE svg PUBLIC "-//W3C//DTD SVG 20010904//EN"
 "http://www.w3.org/TR/2001/REC-SVG-20010904/DTD/svg10.dtd">
<svg version="1.0" xmlns="http://www.w3.org/2000/svg"
 width="512.000000pt" height="512.000000pt" viewBox="0 0 512.000000 512.000000"
 preserveAspectRatio="xMidYMid meet">
<metadata>
Created by potrace 1.14, written by Peter Selinger 2001-2017
</metadata>
<g transform="translate(0.000000,512.000000) scale(0.100000,-0.100000)"
fill="#000000" stroke="none">
<path d="M3425 5109 c-44 -5 -125 -18 -179 -29 -497 -107 -765 -366 -792 -770
-6 -77 18 -397 32 -443 10 -33 44 -39 252 -44 181 -5 219 -3 303 15 320 66
529 291 625 671 30 117 54 313 54 440 l0 93 -39 39 c-38 38 -40 39 -107 38
-38 -1 -105 -5 -149 -10z m145 -211 c-1 -211 -66 -480 -152 -626 -46 -79 -160
-191 -235 -230 -95 -50 -198 -73 -332 -73 -62 0 -115 2 -117 4 -2 2 93 106
211 231 187 197 215 231 215 258 0 41 -34 78 -73 78 -32 0 -36 -4 -315 -303
l-157 -168 -8 68 c-24 205 29 406 138 531 147 166 467 290 778 300 l47 2 0
-72z"/>
<path d="M2035 3718 c-11 -6 -22 -13 -25 -15 -3 -3 -7 -259 -10 -571 l-5 -565
-83 -48 c-132 -76 -211 -136 -308 -234 -444 -449 -511 -1154 -160 -1683 215
-323 553 -536 936 -587 133 -18 227 -18 360 0 661 89 1159 656 1160 1320 0
215 -44 405 -139 600 -122 248 -304 441 -551 583 l-85 49 -5 565 c-3 312 -7
568 -10 571 -28 25 -73 27 -552 27 -351 -1 -509 -4 -523 -12z m105 -2013 c79
-8 199 -28 269 -45 175 -41 245 -50 401 -50 145 0 327 24 465 60 44 12 86 23
94 23 37 4 88 -259 76 -388 -22 -232 -100 -401 -259 -561 -176 -177 -376 -259
-626 -258 -253 1 -462 92 -637 277 -129 138 -209 305 -234 493 -19 144 -1 316
46 428 l15 36 124 0 c68 0 188 -7 266 -15z"/>
</g>
</svg>
